<svg width="99" height="99" viewBox="0 0 99 99" fill="none" xmlns="http://www.w3.org/2000/svg">
<g filter="url(#filter0_d_1_1242)">
<rect x="28.4185" y="18.4936" width="48.1544" height="48.1544" rx="24.0772" transform="rotate(-6.0288 28.4185 18.4936)" fill="white"/>
</g>
<path d="M44.1829 34.0342C44.1596 33.8137 44.2249 33.593 44.3643 33.4206C44.5038 33.2482 44.706 33.1383 44.9265 33.115C47.8785 32.8032 50.6447 31.4541 53.2393 29.0426C53.3718 28.9194 53.5407 28.8426 53.7206 28.8236C53.9005 28.8046 54.0817 28.8445 54.237 28.9372C57.2781 30.7535 60.2651 31.4951 63.2171 31.1833C63.4376 31.16 63.6583 31.2253 63.8307 31.3647C64.0031 31.5042 64.113 31.7064 64.1363 31.9269L64.7509 37.7466C64.7721 37.9473 64.7886 38.1461 64.8007 38.3455C64.2021 37.856 63.4715 37.5553 62.7016 37.4819C61.9318 37.4084 61.1575 37.5653 60.4771 37.9328C59.7966 38.3003 59.2407 38.8617 58.88 39.5457C58.5193 40.2297 58.3699 41.0056 58.451 41.7746L58.4569 41.83C57.8444 42.0239 57.3177 42.4235 56.966 42.961C56.6143 43.4986 56.4591 44.1412 56.5267 44.7801L57.112 50.3227C57.1179 50.3781 57.1246 50.4312 57.1336 50.484C56.8819 50.6272 56.6254 50.7664 56.3597 50.9043C56.1722 51.0018 55.9548 51.0248 55.7511 50.9685C49.0923 49.1252 45.3829 45.3965 44.7976 39.8539L44.1829 34.0342ZM59.6766 42.7661L59.5595 41.6575C59.4819 40.9225 59.6994 40.1868 60.1643 39.6122C60.6291 39.0376 61.3032 38.6712 62.0382 38.5936C62.7731 38.5159 63.5089 38.7335 64.0835 39.1983C64.6581 39.6631 65.0245 40.3372 65.1021 41.0722L65.2192 42.1807L65.7735 42.1222C66.2145 42.0756 66.6559 42.2061 67.0007 42.485C67.3454 42.7639 67.5653 43.1683 67.6119 43.6093L68.1972 49.1519C68.2438 49.5929 68.1133 50.0344 67.8344 50.3791C67.5555 50.7239 67.1511 50.9437 66.7101 50.9903L60.0589 51.6928C59.6179 51.7393 59.1765 51.6088 58.8317 51.3299C58.487 51.051 58.2671 50.6466 58.2206 50.2056L57.6352 44.663C57.5886 44.222 57.7191 43.7806 57.998 43.4358C58.2769 43.091 58.6814 42.8712 59.1224 42.8246L59.6766 42.7661ZM61.2223 41.4819L61.3394 42.5905L63.5564 42.3563L63.4394 41.2478C63.4083 40.9538 63.2617 40.6842 63.0319 40.4982C62.8021 40.3123 62.5078 40.2253 62.2138 40.2563C61.9198 40.2874 61.6501 40.434 61.4642 40.6638C61.2783 40.8936 61.1913 41.1879 61.2223 41.4819ZM64.0247 46.7904C63.9937 46.4964 63.8471 46.2268 63.6173 46.0408C63.3874 45.8549 63.0931 45.7679 62.7991 45.7989C62.5051 45.83 62.2355 45.9766 62.0496 46.2064C61.8636 46.4362 61.7766 46.7305 61.8077 47.0245C61.8387 47.3185 61.9853 47.5882 62.2151 47.7741C62.445 47.96 62.7393 48.047 63.0333 48.016C63.3273 47.9849 63.5969 47.8384 63.7828 47.6085C63.9688 47.3787 64.0558 47.0844 64.0247 46.7904Z" fill="#4ADE80"/>
<defs>
<filter id="filter0_d_1_1242" x="0.812134" y="0.829651" width="98.1583" height="98.1583" filterUnits="userSpaceOnUse" color-interpolation-filters="sRGB">
<feFlood flood-opacity="0" result="BackgroundImageFix"/>
<feColorMatrix in="SourceAlpha" type="matrix" values="0 0 0 0 0 0 0 0 0 0 0 0 0 0 0 0 0 0 127 0" result="hardAlpha"/>
<feOffset dx="-5" dy="10"/>
<feGaussianBlur stdDeviation="12.5"/>
<feComposite in2="hardAlpha" operator="out"/>
<feColorMatrix type="matrix" values="0 0 0 0 0.611765 0 0 0 0 0.639216 0 0 0 0 0.686275 0 0 0 0.16 0"/>
<feBlend mode="normal" in2="BackgroundImageFix" result="effect1_dropShadow_1_1242"/>
<feBlend mode="normal" in="SourceGraphic" in2="effect1_dropShadow_1_1242" result="shape"/>
</filter>
</defs>
</svg>
